<?xml version="1.0" encoding="UTF-8"?>
<svg id="Layer_1" data-name="Layer 1" xmlns="http://www.w3.org/2000/svg" viewBox="0 0 500 500">
  <defs>
    <style>
      .cls-1 {
        stroke: #29659b;
        stroke-miterlimit: 10;
      }

      .cls-1, .cls-2 {
        fill: #fff;
      }

      .cls-3 {
        fill: #29659b;
        font-family: MyriadPro-Semibold, 'Myriad Pro';
        font-size: 28.37px;
        font-weight: 600;
      }

      .cls-3, .cls-4 {
        isolation: isolate;
      }
    </style>
  </defs>
  <g id="OBJECTS">
    <g>
      <path class="cls-1" d="M345.79,75.69c-.84-.26-1.7-.5-2.58-.72-8.37-2.09-19.28-2.82-28.47-1.87h-.01c-8.29.87-37.25,5.94-62.12,34.78-16.78-21.57-43.85-35.19-70.86-35.19-51.03,0-92.55,41.52-92.55,92.55,0,40.9,26.17,76.38,65.18,88.44l.73.36h.49c6.17,1.76,14.07,2.77,21.83,2.77,2.89,0,5.73-.14,8.43-.42,8.28-.86,37.25-5.9,62.17-34.84,28.04-32.56,61.12-78.88,62.35-80.92,3.81-6.29,1.79-14.51-4.5-18.32s-14.51-1.79-18.33,4.5c-.29.48-33.14,46.43-59.75,77.33-18.5,21.48-38.88,25.11-44.69,25.71-6.61.68-15.19.03-20.46-1.54l-.09-.03c-27.92-8.48-46.69-33.82-46.69-63.03,0-36.32,29.55-65.87,65.87-65.87,22.85,0,46.44,14.72,56.09,35.01,1.04,2.19,2.64,4.03,4.64,5.36.4.4.82.76,1.26,1.09,2.34,1.79,5.13,2.73,8.06,2.73,4.2,0,8.08-1.93,10.64-5.3,3.88-5.12,7.36-9.47,10.33-12.93,18.52-21.51,38.89-25.1,44.71-25.7,6.6-.7,15.24-.04,20.58,1.59.7.21,1.39.45,2.08.68l7.12,2.48v-23.94h-2.93l1.46-4.78v.02Z"/>
      <path class="cls-1" d="M410.8,164.14c-.13-7.32-1.1-14.58-2.89-21.6-.36-1.41-3.15-10.62-4.66-13.47l-2.57-4.85-22.84,12.82,1.71,4.34c2.9,7.38,4.44,15.19,4.58,23.22.15,8.77-1.39,17.31-4.58,25.38-1.52,3.84-3.96,8.41-6.78,13.03-.1.15-.22.29-.31.45-.07.12-7.6,12.1-20.97,27.21-12.43,14.05-32.46,30.21-61.25,49.41-6.15,4.1-7.81,12.41-3.71,18.55,2.56,3.84,6.76,5.93,11.05,5.96,2.58.02,5.19-.71,7.5-2.25,31.16-20.77,52.27-37.92,66.44-53.94,2.38-2.69,4.6-5.29,6.64-7.77.42-.38.82-.77,1.2-1.21,4.37-5.08,9.46-11.95,14.08-19.16,1.06-1.59,1.64-2.52,1.73-2.66.22-.36.42-.73.61-1.1,3.48-5.74,6.53-11.53,8.58-16.69,4.49-11.36,6.66-23.36,6.44-35.67h0Z"/>
    </g>
    <g>
      <path class="cls-1" d="M121.82,261.12c13.37,18.77,30,36.04,50.37,48.56.41.25.81.5,1.22.75,12.11,7.38,24.92,13.79,38.24,19.12,6.91,2.77,13.54,6.11,20.7,8.35,2.7.85,5.44,1.58,8.22,2.19,2.2.48,5.68,1.72,7.93,1.37,3.71-.59.17-9.49-.35-11.78-1.18-5.23-2.56-10.43-4.65-15.42-4.26-10.18-9.14-20.15-14.59-29.84-6.62-11.76-13.61-22.45-22.92-32.56-4.45-4.83-10.85-7.43-16.8-10.65-7.28-3.92-14.55-7.85-21.83-11.77-.45-.24-.93-.49-1.45-.48-.54,0-1.03.31-1.45.63-2.64,2.06-3.58,5.53-3.15,8.69.43,3.16,2.04,6.08,3.8,8.82,3.83,5.97,8.15,11.9,12.96,17.2,2.58,2.84,5.2,5.65,7.8,8.47,1.91,2.07,4.55,6.58,7.08,7.86-9.61-4.87-19.26-9.75-28.08-15.74-1.18-.8-2.31-1.65-3.39-2.53-16.8-13.77-21.27-36.54-38.29-50.26-1.18-.95-2.91-2.46-4.47-2.83-1.7-.4-3.84.56-5.49.97-2.09-3.88-4.18-7.76-6.26-11.65-1.21-2.25-2.48-4.58-4.58-6.18-2.1-1.61-5.27-2.3-7.59-.97-.63.36.6,6.57.71,7.4.36,2.72.84,5.42,1.43,8.11,4.19,19.18,13.22,37.81,24.87,54.18h0Z"/>
      <path class="cls-1" d="M378.23,261.12c-13.37,18.77-30,36.04-50.37,48.56-.41.25-.81.5-1.22.75-12.11,7.38-24.92,13.79-38.24,19.12-6.91,2.77-13.54,6.11-20.7,8.35-2.7.85-5.44,1.58-8.22,2.19-2.2.48-5.68,1.72-7.93,1.37-3.71-.59-.17-9.49.35-11.78,1.18-5.23,2.56-10.43,4.65-15.42,4.26-10.18,9.14-20.15,14.59-29.84,6.62-11.76,13.61-22.45,22.92-32.56,4.45-4.83,10.85-7.43,16.8-10.65,7.28-3.92,14.55-7.85,21.83-11.77.45-.24.93-.49,1.45-.48.54,0,1.03.31,1.45.63,2.64,2.06,3.58,5.53,3.15,8.69s-2.04,6.08-3.8,8.82c-3.83,5.97-8.15,11.9-12.96,17.2-2.58,2.84-5.2,5.65-7.8,8.47-1.91,2.07-4.55,6.58-7.08,7.86,9.61-4.87,19.25-9.75,28.08-15.74,1.18-.8,2.31-1.65,3.39-2.53,16.8-13.77,21.27-36.54,38.29-50.26,1.18-.95,2.91-2.46,4.47-2.83,1.7-.4,3.84.56,5.49.97,2.09-3.88,4.18-7.76,6.26-11.65,1.21-2.25,2.48-4.58,4.58-6.18s5.27-2.3,7.59-.97c.63.36-.6,6.57-.71,7.4-.36,2.72-.84,5.42-1.43,8.11-4.19,19.18-13.22,37.81-24.87,54.18h-.01Z"/>
    </g>
    <path class="cls-1" d="M388.08,117.53h-24.37v-24.37c0-9.91-8.06-17.97-17.97-17.97s-17.96,8.06-17.96,17.97v24.37h-24.37c-9.91,0-17.97,8.06-17.97,17.96s8.06,17.97,17.97,17.97h24.37v24.37c0,9.91,8.06,17.96,17.96,17.96s17.97-8.06,17.97-17.96v-24.37h24.37c9.91,0,17.96-8.06,17.96-17.97s-8.06-17.96-17.96-17.96Z"/>
  </g>
  <g id="TEXTS">
    <g class="cls-4">
      <path class="cls-2" d="M71.93,387.06c-.35,0-.63-.11-.85-.33-.22-.22-.33-.51-.33-.86v-30.89c0-.35.11-.63.33-.86.22-.22.51-.33.85-.33h6.13c.35,0,.64.11.88.33.24.22.36.51.36.86v11.45h11.69v-11.45c0-.35.11-.63.33-.86.22-.22.51-.33.86-.33h6.13c.35,0,.63.11.85.33.22.22.33.51.33.86v30.89c0,.32-.11.59-.33.83s-.51.36-.85.36h-6.13c-.35,0-.63-.12-.86-.36s-.33-.51-.33-.83v-11.83h-11.69v11.83c0,.32-.12.59-.36.83-.24.24-.53.36-.88.36h-6.13Z"/>
      <path class="cls-2" d="M107.34,387.06c-.35,0-.63-.12-.85-.36-.22-.24-.33-.51-.33-.83v-30.89c0-.35.11-.63.33-.86.22-.22.51-.33.85-.33h22.19c.35,0,.63.11.86.33.22.22.33.51.33.86v4.47c0,.35-.11.63-.33.86-.22.22-.51.33-.86.33h-15.16v6.42h14.11c.35,0,.63.12.86.36.22.24.33.53.33.88v4.13c0,.32-.11.59-.33.83-.22.24-.51.36-.86.36h-14.11v6.61h15.54c.35,0,.63.11.86.33.22.22.33.51.33.85v4.47c0,.32-.11.59-.33.83-.22.24-.51.36-.86.36h-22.57Z"/>
      <path class="cls-2" d="M134.61,387.06c-.25,0-.48-.1-.69-.31s-.31-.44-.31-.69c0-.16.02-.3.05-.43l11.17-30.51c.09-.35.29-.66.59-.93.3-.27.72-.4,1.26-.4h7.03c.54,0,.96.13,1.26.4.3.27.5.58.59.93l11.12,30.51c.06.13.1.27.1.43,0,.25-.1.48-.31.69s-.45.31-.74.31h-5.85c-.48,0-.83-.12-1.07-.36-.24-.24-.39-.45-.45-.64l-1.85-4.85h-12.69l-1.81,4.85c-.06.19-.21.4-.43.64-.22.24-.6.36-1.14.36h-5.84ZM145.78,374.37h8.84l-4.42-12.55-4.42,12.55Z"/>
    </g>
    <g class="cls-4">
      <path class="cls-2" d="M171.73,387.06c-.35,0-.63-.12-.86-.36s-.33-.51-.33-.83v-30.89c0-.35.11-.63.33-.86.22-.22.51-.33.86-.33h12.93c4.12,0,7.35.94,9.69,2.83s3.52,4.55,3.52,8.01c0,2.25-.54,4.15-1.62,5.7-1.08,1.55-2.5,2.72-4.28,3.52l6.51,11.69c.09.19.14.36.14.52,0,.25-.1.48-.31.69-.21.21-.44.31-.69.31h-6.32c-.6,0-1.04-.15-1.33-.45s-.49-.58-.62-.83l-5.42-10.45h-4.85v10.55c0,.32-.12.59-.36.83-.24.24-.53.36-.88.36h-6.13ZM179.1,368.57h5.46c1.49,0,2.61-.36,3.35-1.09.74-.73,1.12-1.71,1.12-2.95s-.36-2.23-1.07-2.99c-.71-.76-1.85-1.14-3.4-1.14h-5.46v8.17Z"/>
    </g>
    <g class="cls-4">
      <path class="cls-2" d="M211.55,387.06c-.35,0-.63-.12-.86-.36-.22-.24-.33-.51-.33-.83v-24.62h-8.46c-.35,0-.63-.12-.86-.36-.22-.24-.33-.51-.33-.83v-5.08c0-.35.11-.63.33-.86s.51-.33.86-.33h25.57c.35,0,.63.11.86.33.22.22.33.51.33.86v5.08c0,.32-.11.59-.33.83-.22.24-.51.36-.86.36h-8.46v24.62c0,.32-.11.59-.33.83-.22.24-.51.36-.86.36h-6.27Z"/>
    </g>
    <g class="cls-4">
      <path class="cls-2" d="M254.8,387.54c-2.73,0-5.05-.47-6.99-1.4-1.93-.93-3.42-2.38-4.47-4.32-1.05-1.95-1.63-4.4-1.76-7.34-.03-1.39-.05-2.73-.05-4.02s.02-2.62.05-4.02c.13-2.91.74-5.35,1.83-7.29,1.09-1.95,2.61-3.41,4.56-4.37,1.95-.97,4.22-1.45,6.82-1.45s4.82.48,6.77,1.45c1.95.97,3.48,2.42,4.59,4.37,1.11,1.95,1.71,4.38,1.81,7.29.06,1.39.09,2.73.09,4.02s-.03,2.62-.09,4.02c-.1,2.95-.67,5.39-1.74,7.34s-2.56,3.39-4.49,4.32c-1.93.93-4.25,1.4-6.94,1.4ZM254.8,383.5c2.41,0,4.38-.73,5.92-2.19,1.54-1.46,2.37-3.82,2.5-7.08.06-1.43.09-2.7.09-3.83s-.03-2.38-.09-3.78c-.06-2.19-.47-3.96-1.21-5.32-.75-1.36-1.73-2.36-2.97-2.99-1.24-.63-2.65-.95-4.23-.95s-2.99.32-4.23.95c-1.24.63-2.23,1.63-2.97,2.99-.75,1.36-1.16,3.14-1.26,5.32-.03,1.39-.05,2.65-.05,3.78s.02,2.4.05,3.83c.13,3.26.97,5.62,2.52,7.08,1.55,1.46,3.53,2.19,5.94,2.19Z"/>
    </g>
    <g class="cls-4">
      <path class="cls-2" d="M276.1,387.06c-.35,0-.62-.1-.81-.31-.19-.21-.29-.47-.29-.78v-31.03c0-.35.1-.63.29-.83.19-.21.46-.31.81-.31h19.39c.35,0,.62.1.83.31s.31.48.31.83v1.9c0,.35-.1.62-.31.81-.21.19-.48.29-.83.29h-15.87v11.07h14.92c.35,0,.62.1.83.31.21.21.31.48.31.83v1.9c0,.32-.1.58-.31.78-.21.21-.48.31-.83.31h-14.92v12.83c0,.32-.1.58-.31.78s-.48.31-.83.31h-2.38Z"/>
    </g>
    <g class="cls-4">
      <path class="cls-2" d="M325.61,387.54c-2.92,0-5.33-.54-7.25-1.62-1.92-1.08-3.37-2.58-4.35-4.51-.98-1.93-1.52-4.18-1.62-6.75-.03-1.3-.05-2.69-.05-4.18s.02-2.91.05-4.28c.1-2.57.63-4.82,1.62-6.75.98-1.93,2.43-3.44,4.35-4.51s4.33-1.62,7.25-1.62c2.19,0,4.1.3,5.75.9,1.65.6,3.02,1.41,4.11,2.42,1.09,1.01,1.92,2.15,2.5,3.4.57,1.25.89,2.54.95,3.87.03.29-.06.52-.26.71-.21.19-.45.29-.74.29h-2.61c-.29,0-.53-.08-.74-.24-.21-.16-.36-.44-.45-.86-.54-2.47-1.54-4.17-3.02-5.08-1.47-.92-3.3-1.38-5.49-1.38-2.57,0-4.59.72-6.08,2.16-1.49,1.44-2.28,3.75-2.38,6.91-.09,2.6-.09,5.26,0,7.98.1,3.17.89,5.47,2.38,6.91,1.49,1.44,3.52,2.16,6.08,2.16,2.19,0,4.02-.46,5.49-1.38,1.47-.92,2.48-2.61,3.02-5.08.1-.41.25-.7.45-.86s.45-.24.74-.24h2.61c.29,0,.53.09.74.26.21.17.29.4.26.69-.06,1.33-.38,2.63-.95,3.9-.57,1.27-1.4,2.41-2.5,3.42-1.09,1.01-2.46,1.82-4.11,2.42-1.65.6-3.56.9-5.75.9Z"/>
    </g>
    <g class="cls-4">
      <path class="cls-2" d="M342.72,387.06c-.25,0-.47-.09-.67-.29s-.29-.41-.29-.67c0-.16.02-.33.05-.52l11.78-30.75c.13-.32.3-.57.52-.76.22-.19.55-.29,1-.29h3.23c.44,0,.78.09,1,.29.22.19.4.44.52.76l11.74,30.75c.06.19.09.36.09.52,0,.25-.09.47-.29.67s-.41.29-.67.29h-2.42c-.38,0-.66-.09-.83-.29-.17-.19-.29-.36-.36-.52l-2.61-6.75h-15.59l-2.61,6.75c-.03.16-.14.33-.33.52-.19.19-.48.29-.86.29h-2.42ZM350.32,375.42h12.83l-6.42-16.87-6.42,16.87Z"/>
      <path class="cls-2" d="M377.89,387.06c-.35,0-.62-.1-.81-.31-.19-.21-.29-.47-.29-.78v-31.03c0-.35.09-.63.29-.83.19-.21.46-.31.81-.31h11.59c3.58,0,6.42.84,8.51,2.52,2.09,1.68,3.14,4.17,3.14,7.46,0,2.44-.61,4.43-1.83,5.96-1.22,1.54-2.88,2.61-4.97,3.21l7.32,12.64c.09.19.14.36.14.52,0,.25-.1.47-.31.67-.21.19-.44.29-.69.29h-2.28c-.54,0-.94-.14-1.19-.43-.25-.29-.48-.57-.67-.86l-6.89-12.07h-8.32v12.26c0,.32-.1.58-.31.78s-.48.31-.83.31h-2.42ZM381.45,369.67h7.84c2.38,0,4.15-.5,5.32-1.5,1.17-1,1.76-2.48,1.76-4.44s-.58-3.41-1.73-4.42c-1.16-1.01-2.94-1.52-5.35-1.52h-7.84v11.88Z"/>
      <path class="cls-2" d="M409.01,387.06c-.35,0-.62-.1-.81-.31-.19-.21-.29-.47-.29-.78v-31.03c0-.35.1-.63.29-.83.19-.21.46-.31.81-.31h19.63c.35,0,.62.1.81.31.19.21.29.48.29.83v1.81c0,.35-.09.62-.29.81s-.46.29-.81.29h-16.16v10.41h15.11c.35,0,.62.1.81.31s.29.48.29.83v1.76c0,.32-.09.58-.29.78s-.46.31-.81.31h-15.11v10.79h16.54c.35,0,.62.09.81.29s.29.46.29.81v1.85c0,.32-.1.58-.29.78-.19.21-.46.31-.81.31h-20.01Z"/>
    </g>
    <g class="cls-4">
      <text class="cls-3" transform="translate(142.09 422.78)"><tspan x="0" y="0">MEDI</tspan></text>
      <text class="cls-3" transform="translate(207.02 422.78)"><tspan x="0" y="0">C</tspan></text>
      <text class="cls-3" transform="translate(223.9 422.78)"><tspan x="0" y="0">AL CENTER</tspan></text>
    </g>
  </g>
</svg>